<svg width="180" height="180" viewBox="0 0 180 180" fill="none" xmlns="http://www.w3.org/2000/svg">
<path d="M166 4H17V152H165.997V4H166ZM28.1036 142.677V13.2328H154.896V142.677H28.1036V142.677Z" fill="black"/>
<path d="M166 153H17V177H166V153Z" fill="black"/>
<path fill-rule="evenodd" clip-rule="evenodd" d="M111.69 108L135.69 96.25L150.38 106.848V126L77 126H33V102.824L48.3202 90L67.2603 100.759L85.69 82L111.69 108Z" fill="black"/>
<path d="M86.0661 76.516L104.662 95.112C112.96 91.754 118.824 83.636 118.824 74.134C118.824 61.634 108.69 51.502 96.1921 51.502C83.6941 51.502 73.5601 61.634 73.5601 74.134C73.5601 78.438 74.7841 82.448 76.8721 85.876L86.0661 76.516Z" fill="black"/>
<path d="M150 130H33V137H150V130Z" fill="black"/>
</svg>
