<svg xmlns="http://www.w3.org/2000/svg" height="171.2" width="1028.9"><path d="M784 0v134c0 9 4 13 13 14h44v15c0 1-1 3-3 3h-71c-22 0-26-13-26-24V9c0-6 3-9 10-9h33M701 0v157c0 7-3 9-8 9h-34V9c0-5 2-9 9-9h33M0 23C0 10 0 0 21 0h91v16l-2 2H55c-7 0-11 4-11 11v42h64v17l-2 2H44v67c0 6-3 9-10 9H0V23M178 0v126c0 11 1 19 9 23 10 6 27 6 38 0 7-4 10-10 10-23V8c0-5 2-8 9-8h33v122c0 29-18 41-34 45-21 6-53 6-73 0-24-7-35-21-35-45V9c0-6 2-9 9-9h34M980 0c-8 0-13 4-15 11l-27 115h-1L909 0h-38c-7 0-10 4-10 10v156h17c2 0 3-2 3-4V31h3l34 135h23c8 0 11-4 14-12l31-123h2v135h30c8 0 11-3 11-11V0h-49M478 90h-42v76h34c6 0 8-2 8-9V90"/><path d="M476 58c1-2 2-2 2-5V0h-32c-8 0-10 4-10 9v80l40-31" fill="#ed1a3a"/><path d="M331 152c18-2 24-13 24-29V9c0-7 4-9 9-9h34v108c0 26-6 39-22 51-8 6-22 12-53 12l-27-1c-1 0-2-1-2-3v-13c8 0 24 0 37-2M543 0c-21 0-21 10-21 23v42l-1 2-29 23h30v76h34c7 0 10-3 10-9V90h62l2-2V71h-64V29c0-7 4-11 11-11h55l2-2V0h-91"/></svg>