<svg width="48" height="48" fill="none" xmlns="http://www.w3.org/2000/svg"><path fill-rule="evenodd" clip-rule="evenodd" d="M24.3 32.5h-3.4a6 6 0 0 1-2-.4c-1.2-.5-2-1.3-2.5-2.4a6 6 0 0 1-.3-2l-.1-3.4v-3.5c0-.6.2-1.3.4-2 .5-1 1.3-2 2.4-2.4a6 6 0 0 1 2-.4h6.8a6 6 0 0 1 2 .4c1.2.5 2 1.3 2.5 2.4l.4 2v6.9a6 6 0 0 1-.4 2c-.5 1-1.3 2-2.4 2.4a6 6 0 0 1-2 .4h-3.4Zm0-4a4.2 4.2 0 1 1 0-8.5 4.2 4.2 0 0 1 0 8.5Zm-2.8-4.3a2.7 2.7 0 1 1 5.5 0 2.7 2.7 0 0 1-5.5 0Zm6.2-4.3a1 1 0 1 0 2 0 1 1 0 0 0-2 0Z" fill="#A3A3A3"/></svg>