<svg width="41" height="124" fill="none" xmlns="http://www.w3.org/2000/svg"><path fill-rule="evenodd" clip-rule="evenodd" d="M38.72 26.25v6.88h-2.48c.67 1.07 1.47 2.03 1.92 3.13 1.17 2.86.58 5.58-1.06 8.08-1.97 2.99-4.85 4.7-8.18 5.62-4.97 1.38-9.81 1-14.37-1.53-2.84-1.57-5.12-3.74-6.02-7.01a8.38 8.38 0 0 1 1.5-7.83c.03-.05.1-.1.14-.2-.44-.1-.9-.2-1.32-.34-1.63-.54-2.72-2.14-2.49-3.65.31-2.01 1.58-3.15 3.56-3.15h28.81ZM23.1 32.8c-.45.04-1.14.07-1.82.16a9.3 9.3 0 0 0-4.97 1.98 4.06 4.06 0 0 0-.45 6.03c.42.47.94.9 1.48 1.23a11.67 11.67 0 0 0 7.18 1.59c2.15-.16 4.2-.66 5.91-2.1a4.4 4.4 0 0 0 1.73-3.2c.08-1.7-.97-2.76-2.17-3.66-1.97-1.47-4.25-2-6.9-2.03ZM7.05 105.13h6.93c-1-.64-1.94-1.13-2.77-1.77-2.89-2.2-3.85-5.62-2.4-8.64a6.76 6.76 0 0 1 6.43-4c7.7-.07 23.1-.03 23.1-.03l.36-.01v6.9l-23.9-.01.39.56 4.55 6.99.66.01s10.08-.03 15.12.02c.77 0 1.62.2 2.27.58 1.38.8 1.85 2.34 1.4 3.88a3.41 3.41 0 0 1-3.27 2.42h-5.84l-17.73.01h-.7l-4.17-6.28-.43-.63ZM9.2 24.27v-2.3l-.02-5.42.69-.35 7.1-3.62.72-.37-.68-.37L9.72 8.1l-.5-.3L9.2.14c.3.14.52.24.74.36l12.74 6.52.63.32s7.6-3.92 11.11-5.7a3.38 3.38 0 0 1 4.97 2.55 3.46 3.46 0 0 1-1.92 3.61c-2.63 1.36-5.26 2.7-7.9 4.05l-.68.37 11 5.63-3.06 6.13c-.25-.12-.47-.21-.68-.32L23.32 17.1l-.63.29L9.95 23.9l-.76.37ZM11.03 69.98l5.73 2.58c-.6 1.26-1.26 2.43-1.7 3.69-.26.8-.34 1.75-.21 2.6a2.28 2.28 0 0 0 3.83 1.4c.67-.6 1.2-1.4 1.62-2.21.72-1.42 1.24-2.94 1.93-4.38 1.47-3.08 4.02-4.48 7.28-4.64 5.25-.27 8.97 2.68 9.72 7.96.6 4.16-.64 7.83-3.79 10.69-1 .92-2.2 1.32-3.56.8-1.25-.47-1.92-1.44-2.14-2.75-.14-.91.14-1.68.72-2.38.62-.75 1.25-1.5 1.75-2.32.66-1.08.99-2.25.54-3.53-.37-1.01-1.03-1.73-2.1-1.88-1.01-.15-1.98.14-2.53 1.05-.59.98-1.08 2.04-1.46 3.13-.6 1.7-1.22 3.36-2.42 4.72a9.11 9.11 0 0 1-13.72-.2c-2.25-2.66-2.66-5.72-1.95-9.03a11.9 11.9 0 0 1 2.46-5.3ZM15.38 63v2.66c0 1.67-1.23 3.01-2.78 3.04-1.46.03-2.75-1.3-2.8-2.94-.03-.89 0-1.77 0-2.77H7.4l-2.5-.02-1.34-2.03-2.97-4.45-.43-.7H9.8v-3.88l.63-.15 4.95-1.15v5.13h25.5s-.26.41-.36.54l-4.64 6.7-.7.01H15.4ZM38.73 116.65v7.21H12.98c-1.8 0-3.19-1.03-3.64-2.63a3.57 3.57 0 0 1 3.44-4.58h25.95ZM2.92 123.08a2.81 2.81 0 0 1-2.8-2.83 2.82 2.82 0 0 1 2.8-2.83c1.52 0 2.8 1.28 2.8 2.83a2.84 2.84 0 0 1-2.8 2.83Z" fill="#000"/></svg>