<svg width="48" height="48" viewBox="0 0 48 48" fill="none" xmlns="http://www.w3.org/2000/svg">
<path d="M27.2503 36.9866L20.2532 43.9891C18.068 45.9866 15.1974 47.0639 12.2385 46.9971C9.27985 46.93 6.46071 45.7237 4.36794 43.6294C2.27516 41.5349 1.06996 38.7138 1.00293 35.7525C0.936125 32.7914 2.01252 29.9184 4.00848 27.7314L13.4275 18.305C14.7142 17.0281 16.2841 16.074 18.0093 15.5198C19.7345 14.9656 21.5662 14.8271 23.3549 15.1161C25.1437 15.4048 26.8389 16.1125 28.3023 17.1817C29.7658 18.2506 30.9561 19.6506 31.7764 21.2676L28.6938 24.3526C28.2563 22.8018 27.3184 21.4395 26.026 20.4783C24.7336 19.5172 23.1598 19.0112 21.55 19.0394C19.5928 19.0394 17.709 19.7984 16.29 21.1697L6.84645 30.5961C5.59153 32.0221 4.92716 33.8733 4.9885 35.7724C5.04961 37.6718 5.83205 39.4761 7.17612 40.8182C8.52041 42.1603 10.3251 42.939 12.223 42.996C14.1208 43.0529 15.9689 42.3835 17.3909 41.1244L22.0882 36.4234C24.0211 36.9866 25.5623 37.0845 27.2259 36.9866H27.2503ZM27.5928 4.17729L20.6447 11.1309C22.3756 11.0052 24.1153 11.1875 25.7824 11.6696L30.4308 7.01745C31.8498 5.71106 33.7192 5.00507 35.6468 5.04756C37.5746 5.08984 39.4111 5.87753 40.7714 7.24526C42.1317 8.61277 42.9099 10.4545 42.9435 12.3839C42.977 14.3133 42.2629 16.1806 40.9508 17.5948L31.6051 26.9479C30.6886 27.8561 29.5522 28.5112 28.3074 28.8488C27.0623 29.1866 25.7513 29.1955 24.5017 28.8751C23.2522 28.5544 22.1072 27.915 21.1783 27.0195C20.2493 26.1238 19.5681 25.0025 19.2014 23.7649L19.0546 23.8874L16.1187 26.8255C16.9263 28.4525 18.1105 29.8628 19.5727 30.9394C21.035 32.016 22.7328 32.7275 24.5253 33.0148C26.3176 33.3025 28.1527 33.1572 29.8777 32.5917C31.6027 32.0263 33.168 31.0566 34.4431 29.7635L43.8133 20.4595C45.8885 18.2868 47.032 15.3879 46.9993 12.3824C46.9667 9.37703 45.7602 6.50357 43.6383 4.37662C41.5161 2.24967 38.6468 1.03812 35.6439 1.00088C32.6408 0.963646 29.7424 2.10379 27.5683 4.17729H27.5928Z" fill="#A3A3A3"/>
</svg>
