<svg width="17" height="102" fill="none" xmlns="http://www.w3.org/2000/svg"><g clip-path="url(#a)"><path d="M0 24.28h13.3c.9 0 1.3-.4 1.4-1.3v-4.35h1.49c.1 0 .3.1.3.3v7.03c0 2.18-1.3 2.58-2.39 2.58H.9c-.6 0-.9-.3-.9-.99v-3.27Zm0 8.23h15.59c.7 0 .9.3.9.79v3.37H.88c-.5 0-.89-.2-.89-.9v-3.26ZM2.28 102C1 102 0 102 0 99.92V90.9h1.59l.2.2v5.45c0 .7.4 1.09 1.09 1.09h4.17v-6.35h1.69l.2.2v6.15h6.65c.6 0 .9.3.9.99V102H2.28ZM0 84.35h12.51c1.1 0 1.89-.1 2.29-.89.6-.99.6-2.67 0-3.77-.4-.69-1-.99-2.29-.99H.8c-.5 0-.79-.2-.79-.89v-3.27h12.11c2.88 0 4.08 1.78 4.47 3.37.6 2.08.6 5.25 0 7.24-.7 2.38-2.08 3.47-4.47 3.47H.9c-.6 0-.89-.2-.89-.9v-3.37Zm0-79.5c0 .8.4 1.29 1.1 1.48L12.5 9.01v.1L0 11.9v3.76c0 .7.4 1 1 1h15.48v-1.69c0-.2-.2-.3-.4-.3h-13v-.3L16.48 11V8.71c0-.79-.4-1.09-1.19-1.38L3.08 4.25v-.2h13.4V1.08c0-.8-.3-1.09-1.09-1.09H0v4.86ZM8.94 54.6v4.17h7.54V55.4c0-.6-.2-.8-.89-.8H8.94Z" fill="#000"/><path d="M5.76 54.81c-.2-.1-.2-.2-.5-.2H0v3.18c0 .79.4.99.9.99h7.94L5.76 54.8Z" fill="#ED1A3A"/><path d="M15.1 69.19c-.2-1.79-1.3-2.38-2.89-2.38H.9c-.7 0-.89-.4-.89-.9v-3.37h10.72c2.59 0 3.88.6 5.07 2.19.6.79 1.19 2.18 1.19 5.25l-.1 2.68c0 .1-.1.2-.3.2H15.3c0-.8 0-2.39-.2-3.67ZM0 48.17c0 2.08 1 2.08 2.28 2.08h4.17l.2.1 2.29 2.88v-2.98h7.54v-3.37c0-.7-.3-1-.89-1H8.94v-6.14l-.2-.2H7.05v6.35H2.88c-.7 0-1.1-.4-1.1-1.1v-5.44l-.2-.2H0v9.02Z" fill="#000"/></g><defs><clipPath id="a"><path fill="#fff" transform="rotate(-90 51 51)" d="M0 0h102v17H0z"/></clipPath></defs></svg>